#!OML:ASF F:\VICON\USERDATA\INSTALL\rory3\rory3.ASF
:FULLY-SPECIFIED
:DEGREES
460
root 4.54198 16.2162 1.8498 13.9533 -4.93781 -0.501664
lowerback 6.1034 -0.684687 -0.316542
upperback 3.29224 -0.931599 -0.494217
thorax -0.0373084 -0.46627 -0.273799
lowerneck -16.0996 -1.11407 -0.469028
upperneck 43.0774 -1.04159 -1.54054
head 19.235 -0.750147 -0.896127
rclavicle 5.06901e-015 -1.19271e-014
rhumerus 7.51297 48.4832 -30.0442
rradius 94.6672
rwrist -42.9523
rhand -9.97264 -45.2765
rfingers 7.12502
rthumb 16.01 -74.6349
lclavicle 5.06901e-015 -1.19271e-014
lhumerus 32.2047 -45.2438 16.964
lradius 91.7612
lwrist 83.7943
lhand -30.6168 -23.464
lfingers 7.12502
lthumb -3.91311 6.47983
rfemur -64.1276 -1.02518 15.798
rtibia 33.2426
rfoot 37.113 -4.46974
rtoes 1.41998
lfemur -43.5275 1.00294 -30.4025
ltibia 52.2981
lfoot -21.6325 4.2359
ltoes 15.4075
461
root 4.54206 16.205 1.84686 13.9805 -4.88705 -0.592555
lowerback 6.30153 -0.730084 -0.22298
upperback 3.29615 -0.987858 -0.490147
thorax -0.144796 -0.493199 -0.315972
lowerneck -16.225 -1.10853 -0.467501
upperneck 43.1903 -1.09002 -1.42004
head 19.3448 -0.752546 -0.851898
rclavicle -4.77083e-015 -3.97569e-015
rhumerus 6.81066 48.8395 -30.7029
rradius 94.6266
rwrist -42.5319
rhand -9.94053 -45.143
rfingers 7.12502
rthumb 16.0409 -74.499
lclavicle -4.77083e-015 -3.97569e-015
lhumerus 31.9613 -45.8559 17.048
lradius 91.6738
lwrist 83.9065
lhand -30.5561 -22.8614
lfingers 7.12502
lthumb -3.85451 7.08346
rfemur -64.174 -1.0161 15.8819
rtibia 33.2757
rfoot 37.1018 -4.05819
rtoes 0.474611
lfemur -43.7408 0.960373 -30.2951
ltibia 52.5926
lfoot -21.7256 4.25244
ltoes 15.3274
462
root 4.54565 16.1966 1.84829 14.0783 -5.00554 -0.654205
lowerback 6.23971 -0.70492 -0.154675
upperback 3.28148 -0.950722 -0.494266
thorax -0.126655 -0.473894 -0.361531
lowerneck -16.0578 -1.18321 -0.730671
upperneck 43.1902 -1.24512 -1.12145
head 19.3019 -0.816477 -0.687568
rclavicle 1.59028e-015 -1.11319e-014
rhumerus 6.09892 49.2727 -31.2483
rradius 94.5942
rwrist -42.2897
rhand -9.12232 -45.3916
rfingers 7.12502
rthumb 16.8287 -74.6823
lclavicle 1.59028e-015 -1.11319e-014
lhumerus 31.8841 -46.4841 17.0222
lradius 91.5352
lwrist 84.1138
lhand -30.429 -22.6231
lfingers 7.12502
lthumb -3.7317 7.32398
rfemur -64.3198 -0.97911 15.9832
rtibia 33.2921
rfoot 37.1835 -4.47196
rtoes 0.793806
lfemur -43.9555 1.00885 -30.2681
ltibia 52.7988
lfoot -21.7588 4.32652
ltoes 15.2317
463
root 4.54809 16.1913 1.84709 14.1542 -5.19054 -0.850681
lowerback 6.19508 -0.644565 -0.0298886
upperback 3.26119 -0.863531 -0.414847
thorax -0.122959 -0.429647 -0.355795
lowerneck -15.6711 -1.26666 -1.06394
upperneck 43.0908 -1.36165 -0.886525
head 19.1342 -0.886287 -0.52961
rclavicle 2.48481e-015 1.35174e-014
rhumerus 5.65242 49.8173 -31.5118
rradius 94.4684
rwrist -42.3397
rhand -9.01681 -45.124
rfingers 7.12502
rthumb 16.9303 -74.4061
lclavicle 2.48481e-015 1.35174e-014
lhumerus 31.5859 -47.3136 17.2729
lradius 91.3521
lwrist 83.8138
lhand -30.459 -23.407
lfingers 7.12502
lthumb -3.7607 6.53957
rfemur -64.4186 -0.800879 16.1976
rtibia 33.2917
rfoot 37.2048 -3.90919
rtoes -0.267205
lfemur -44.1245 1.17989 -30.1032
ltibia 52.9508
lfoot -21.8353 4.41191
ltoes 15.1166
464
root 4.5498 16.1911 1.84058 14.1351 -5.18251 -1.06736
lowerback 6.32618 -0.626066 0.160654
upperback 3.29033 -0.828166 -0.320129
thorax -0.166707 -0.4106 -0.366305
lowerneck -15.4435 -1.30756 -1.22249
upperneck 42.9752 -1.41517 -0.783031
head 18.9992 -0.91942 -0.45661
rclavicle 3.81667e-014 -1.19271e-015
rhumerus 5.12856 50.1812 -31.8424
rradius 94.343
rwrist -42.2287
rhand -9.19702 -44.9904
rfingers 7.12502
rthumb 16.7568 -74.2872
lclavicle 3.81667e-014 -1.19271e-015
lhumerus 31.5978 -47.976 17.3337
lradius 91.1432
lwrist 83.8246
lhand -30.5161 -24.2001
lfingers 7.12502
lthumb -3.8159 5.74549
rfemur -64.3683 -0.672036 16.367
rtibia 33.3234
rfoot 37.1239 -3.99254
rtoes -0.35355
lfemur -44.2044 1.20304 -29.8544
ltibia 53.0849
lfoot -21.9118 4.45257
ltoes 15.0333
465
root 4.55286 16.1874 1.83496 14.1846 -5.05897 -1.01773
lowerback 6.38338 -0.661171 0.158574
upperback 3.33119 -0.874662 -0.319096
thorax -0.156674 -0.43374 -0.360742
lowerneck -15.3781 -1.31664 -1.28084
upperneck 42.8292 -1.46554 -0.650937
head 18.8906 -0.93036 -0.389159
rclavicle -9.74045e-015 -1.55052e-014
rhumerus 4.49178 50.4358 -32.299
rradius 94.3007
rwrist -41.9248
rhand -9.1976 -45.1645
rfingers 7.12502
rthumb 16.7562 -74.4614
lclavicle -9.74045e-015 -1.55052e-014
lhumerus 31.8524 -48.3035 17.1873
lradius 90.9306
lwrist 84.1823
lhand -30.3071 -23.8154
lfingers 7.12502
lthumb -3.61399 6.13369
rfemur -64.4747 -0.795328 16.3026
rtibia 33.4387
rfoot 37.0629 -4.04332
rtoes -0.258872
lfemur -44.3493 1.00269 -29.8761
ltibia 53.2177
lfoot -21.926 4.52082
ltoes 14.9685
